<?xml version="1.0" encoding="UTF-8" standalone="no"?>
<!-- Created with Inkscape (http://www.inkscape.org/) -->

<svg
   xmlns:dc="http://purl.org/dc/elements/1.1/"
   xmlns:cc="http://creativecommons.org/ns#"
   xmlns:rdf="http://www.w3.org/1999/02/22-rdf-syntax-ns#"
   xmlns:svg="http://www.w3.org/2000/svg"
   xmlns="http://www.w3.org/2000/svg"
   xmlns:xlink="http://www.w3.org/1999/xlink"
   xmlns:sodipodi="http://sodipodi.sourceforge.net/DTD/sodipodi-0.dtd"
   xmlns:inkscape="http://www.inkscape.org/namespaces/inkscape"
   width="1052.3622"
   height="744.09448"
   id="svg2"
   version="1.1"
   inkscape:version="0.48.5 r10040"
   sodipodi:docname="radio.svg">
  <defs
     id="defs4" />
  <sodipodi:namedview
     id="base"
     pagecolor="#ffffff"
     bordercolor="#666666"
     borderopacity="1.0"
     inkscape:pageopacity="0.0"
     inkscape:pageshadow="2"
     inkscape:zoom="1.4"
     inkscape:cx="511.17545"
     inkscape:cy="576.73715"
     inkscape:document-units="mm"
     inkscape:current-layer="layer1"
     showgrid="false"
     inkscape:window-width="1920"
     inkscape:window-height="1036"
     inkscape:window-x="4"
     inkscape:window-y="44"
     inkscape:window-maximized="0"
     units="mm"
     inkscape:object-nodes="true"
     inkscape:snap-object-midpoints="true" />
  <metadata
     id="metadata7">
    <rdf:RDF>
      <cc:Work
         rdf:about="">
        <dc:format>image/svg+xml</dc:format>
        <dc:type
           rdf:resource="http://purl.org/dc/dcmitype/StillImage" />
        <dc:title />
      </cc:Work>
    </rdf:RDF>
  </metadata>
  <g
     inkscape:label="Layer 1"
     inkscape:groupmode="layer"
     id="layer1"
     transform="translate(0,-308.2677)">
    <path
       style="fill:#000000;fill-opacity:1;stroke:none"
       d="m 9.875,311.36022 c -0.016917,4.3251 -3.5460358,7.84375 -7.875,7.84375 l 0,5 c 7.0902572,0 12.857889,-5.75744 12.875,-12.84375 l -5,0 z m 241.46875,0 c 0.017,7.08631 5.75349,12.84375 12.84375,12.84375 0.0105,0 0.0207,2e-5 0.0312,0 l 0,-5 c -0.0104,4e-5 -0.0208,0 -0.0312,0 -4.32896,0 -7.82698,-3.51865 -7.84375,-7.84375 l -5,0 z M 2,482.76647 l 0,5 c 4.33938,0 7.875,3.50435 7.875,7.84375 l 5,0 c 0,-7.1008 -5.7742,-12.84375 -12.875,-12.84375 z m 262.1875,0 c -7.1008,0 -12.84375,5.74295 -12.84375,12.84375 l 5,0 c 0,-4.3394 3.50437,-7.84375 7.84375,-7.84375 0.0104,0 0.0208,-4e-5 0.0312,0 l 0,-5 c -0.0105,-3e-5 -0.0207,0 -0.0312,0 z"
       id="path3272"
       inkscape:connector-curvature="0" />
    <text
       sodipodi:linespacing="125%"
       id="text3276"
       y="329.46753"
       x="20.811769"
       style="font-size:10px;font-style:normal;font-variant:normal;font-weight:normal;font-stretch:normal;line-height:125%;letter-spacing:0px;word-spacing:0px;fill:#000000;fill-opacity:1;stroke:none;font-family:ubuntu;-inkscape-font-specification:ubuntu"
       xml:space="preserve"><tspan
         style="font-size:9px;font-family:Linux Biolinum O;-inkscape-font-specification:Linux Biolinum O"
         y="329.46753"
         x="20.811769"
         id="tspan3278"
         sodipodi:role="line">Nicco Kunzmann</tspan><tspan
         style="font-size:9px;font-family:Linux Biolinum O;-inkscape-font-specification:Linux Biolinum O"
         id="tspan3280"
         y="340.71753"
         x="20.811769"
         sodipodi:role="line">Heinrich-von-Kleist-Str. 24, 14482 Potsdam</tspan><tspan
         id="tspan3282"
         style="font-size:9px;font-family:Linux Biolinum O;-inkscape-font-specification:Linux Biolinum O"
         y="351.96753"
         x="20.811769"
         sodipodi:role="line">Tel.: 01633152415 Mail: niccokunzmann@mail.ru</tspan><tspan
         id="tspan3284"
         style="font-size:9px;font-family:Linux Biolinum O;-inkscape-font-specification:Linux Biolinum O"
         y="363.21753"
         x="20.811769"
         sodipodi:role="line">Web: niccokunzmann.github.io/radio</tspan><tspan
         id="tspan3286"
         style="font-size:9px;font-family:Linux Biolinum O;-inkscape-font-specification:Linux Biolinum O"
         y="374.46753"
         x="20.811769"
         sodipodi:role="line" /><tspan
         style="font-size:9px;font-family:Linux Biolinum O;-inkscape-font-specification:Linux Biolinum O"
         id="tspan3288"
         y="385.71753"
         x="20.811769"
         sodipodi:role="line" /></text>
    <g
       transform="matrix(0.5,0,0,0.5,15.355716,-139.62405)"
       id="g3294">
      <rect
         style="fill:#000000;fill-opacity:1;stroke:none"
         id="rect3296"
         width="70"
         height="31.5"
         x="12.875"
         y="1052.3602"
         ry="6.5659914"
         rx="6.5659914" />
      <path
         sodipodi:type="arc"
         style="fill:#ffffff;fill-opacity:1;stroke:none"
         id="path3298"
         sodipodi:cx="40.658642"
         sodipodi:cy="45.072956"
         sodipodi:rx="12.753176"
         sodipodi:ry="12.753176"
         d="m 53.411818,45.072956 c 0,7.043385 -5.709792,12.753176 -12.753176,12.753176 -7.043385,0 -12.753176,-5.709791 -12.753176,-12.753176 0,-7.043384 5.709791,-12.753176 12.753176,-12.753176 7.043384,0 12.753176,5.709792 12.753176,12.753176 z"
         transform="matrix(0.68610362,0,0,0.68610362,2.4789575,1037.1854)" />
      <rect
         style="fill:#ffffff;fill-opacity:1;stroke:none"
         id="rect3300"
         width="26.25"
         height="4.9718447"
         x="49.313541"
         y="1065.7632"
         ry="2.2728431"
         rx="2.2728431" />
      <rect
         rx="2.2728431"
         ry="2.2728431"
         y="1074.5133"
         x="49.313541"
         height="4.9718447"
         width="26.25"
         id="rect3302"
         style="fill:#ffffff;fill-opacity:1;stroke:none" />
      <rect
         rx="2.2728431"
         ry="2.2728431"
         y="1057.0132"
         x="49.203053"
         height="4.9718447"
         width="26.25"
         id="rect3304"
         style="fill:#ffffff;fill-opacity:1;stroke:none" />
      <rect
         style="fill:#000000;fill-opacity:1;stroke:none"
         id="rect3306"
         width="46.358353"
         height="4.9718447"
         x="-729.45758"
         y="760.68762"
         ry="2.2728431"
         rx="2.2728431"
         transform="matrix(0.70710678,-0.70710678,0.70710678,0.70710678,0,0)" />
    </g>
    <text
       sodipodi:linespacing="125%"
       id="text3308"
       y="377.77673"
       x="61.883198"
       style="font-size:10px;font-style:normal;font-variant:normal;font-weight:normal;font-stretch:normal;line-height:125%;letter-spacing:0px;word-spacing:0px;fill:#000000;fill-opacity:1;stroke:none;font-family:ubuntu;-inkscape-font-specification:ubuntu"
       xml:space="preserve"><tspan
         style="font-size:9px;font-style:normal;font-variant:normal;font-weight:normal;font-stretch:normal;font-family:Linux Biolinum O;-inkscape-font-specification:Linux Biolinum O"
         y="377.77673"
         x="61.883198"
         id="tspan3310"
         sodipodi:role="line">Freies Radio Potsdam  frrapo.de</tspan><tspan
         id="tspan3312"
         style="font-size:9px;font-style:normal;font-variant:normal;font-weight:normal;font-stretch:normal;font-family:Linux Biolinum O;-inkscape-font-specification:Linux Biolinum O"
         y="389.02673"
         x="61.883198"
         sodipodi:role="line">2. Montag, 06-07 Uhr _________________________</tspan><tspan
         id="tspan3314"
         style="font-size:9px;font-style:normal;font-variant:normal;font-weight:normal;font-stretch:normal;font-family:Linux Biolinum O;-inkscape-font-specification:Linux Biolinum O"
         y="400.27673"
         x="61.883198"
         sodipodi:role="line">UKW: 90,7MHz (Berlin 88,4MHz)</tspan><tspan
         style="font-size:9px;font-style:normal;font-variant:normal;font-weight:normal;font-stretch:normal;font-family:Linux Biolinum O;-inkscape-font-specification:Linux Biolinum O"
         id="tspan3316"
         y="411.52673"
         x="61.883198"
         sodipodi:role="line" /></text>
    <text
       sodipodi:linespacing="125%"
       id="text3318"
       y="414.53894"
       x="22.8832"
       style="font-size:10px;font-style:normal;font-variant:normal;font-weight:normal;font-stretch:normal;line-height:125%;letter-spacing:0px;word-spacing:0px;fill:#000000;fill-opacity:1;stroke:none;font-family:Linux Biolinum O;-inkscape-font-specification:Linux Biolinum O"
       xml:space="preserve"><tspan
         style="font-size:9px"
         y="414.53894"
         x="22.8832"
         id="tspan3320"
         sodipodi:role="line">Dein Beitrag wird ausgestrahlt, im Internet archiviert</tspan><tspan
         style="font-size:9px"
         id="tspan3322"
         y="425.78894"
         x="22.8832"
         sodipodi:role="line">und darf unter die Lizenz CC-BY-SA gestellt werden.</tspan><tspan
         style="font-size:9px"
         id="tspan3324"
         y="437.03894"
         x="22.8832"
         sodipodi:role="line">creativecommons.org/licenses/by-sa/4.0/deed.de</tspan><tspan
         style="font-size:9px"
         id="tspan3326"
         y="448.28894"
         x="22.8832"
         sodipodi:role="line" /><tspan
         style="font-size:9px"
         id="tspan3328"
         y="459.53894"
         x="22.8832"
         sodipodi:role="line" /><tspan
         id="tspan3330"
         style="font-size:9px"
         y="470.78894"
         x="22.8832"
         sodipodi:role="line" /><tspan
         id="tspan3332"
         style="font-size:9px"
         y="482.03894"
         x="22.8832"
         sodipodi:role="line">Name, Ort, Datum, Unterschrift</tspan></text>
    <use
       x="0"
       y="0"
       xlink:href="#path3272"
       id="use4205"
       transform="translate(262.2187,0)"
       width="1052.3622"
       height="744.09448" />
    <use
       x="0"
       y="0"
       xlink:href="#text3276"
       id="use4207"
       transform="translate(262.2187,0)"
       width="1052.3622"
       height="744.09448" />
    <use
       x="0"
       y="0"
       xlink:href="#g3294"
       id="use4209"
       transform="translate(262.2187,0)"
       width="1052.3622"
       height="744.09448" />
    <use
       x="0"
       y="0"
       xlink:href="#text3308"
       id="use4211"
       transform="translate(262.2187,0)"
       width="1052.3622"
       height="744.09448" />
    <use
       x="0"
       y="0"
       xlink:href="#text3318"
       id="use4213"
       transform="translate(262.2187,0)"
       width="1052.3622"
       height="744.09448" />
    <use
       x="0"
       y="0"
       xlink:href="#use4205"
       id="use4215"
       transform="translate(262.2187,0)"
       width="1052.3622"
       height="744.09448" />
    <use
       x="0"
       y="0"
       xlink:href="#use4207"
       id="use4217"
       transform="translate(262.2187,0)"
       width="1052.3622"
       height="744.09448" />
    <use
       x="0"
       y="0"
       xlink:href="#use4209"
       id="use4219"
       transform="translate(262.2187,0)"
       width="1052.3622"
       height="744.09448" />
    <use
       x="0"
       y="0"
       xlink:href="#use4211"
       id="use4221"
       transform="translate(262.2187,0)"
       width="1052.3622"
       height="744.09448" />
    <use
       x="0"
       y="0"
       xlink:href="#use4213"
       id="use4223"
       transform="translate(262.2187,0)"
       width="1052.3622"
       height="744.09448" />
    <use
       x="0"
       y="0"
       xlink:href="#use4215"
       id="use4225"
       transform="translate(262.2187,0)"
       width="1052.3622"
       height="744.09448" />
    <use
       x="0"
       y="0"
       xlink:href="#use4217"
       id="use4227"
       transform="translate(262.2187,0)"
       width="1052.3622"
       height="744.09448" />
    <use
       x="0"
       y="0"
       xlink:href="#use4219"
       id="use4229"
       transform="translate(262.2187,0)"
       width="1052.3622"
       height="744.09448" />
    <use
       x="0"
       y="0"
       xlink:href="#use4221"
       id="use4231"
       transform="translate(262.2187,0)"
       width="1052.3622"
       height="744.09448" />
    <use
       x="0"
       y="0"
       xlink:href="#use4223"
       id="use4233"
       transform="translate(262.2187,0)"
       width="1052.3622"
       height="744.09448" />
    <use
       x="0"
       y="0"
       xlink:href="#path3272"
       id="use4235"
       transform="translate(0,184.25)"
       width="1052.3622"
       height="744.09448" />
    <use
       x="0"
       y="0"
       xlink:href="#text3276"
       id="use4237"
       transform="translate(0,184.25)"
       width="1052.3622"
       height="744.09448" />
    <use
       x="0"
       y="0"
       xlink:href="#g3294"
       id="use4239"
       transform="translate(0,184.25)"
       width="1052.3622"
       height="744.09448" />
    <use
       x="0"
       y="0"
       xlink:href="#text3308"
       id="use4241"
       transform="translate(0,184.25)"
       width="1052.3622"
       height="744.09448" />
    <use
       x="0"
       y="0"
       xlink:href="#text3318"
       id="use4243"
       transform="translate(0,184.25)"
       width="1052.3622"
       height="744.09448" />
    <use
       x="0"
       y="0"
       xlink:href="#use4205"
       id="use4245"
       transform="translate(0,184.25)"
       width="1052.3622"
       height="744.09448" />
    <use
       x="0"
       y="0"
       xlink:href="#use4207"
       id="use4247"
       transform="translate(0,184.25)"
       width="1052.3622"
       height="744.09448" />
    <use
       x="0"
       y="0"
       xlink:href="#use4209"
       id="use4249"
       transform="translate(0,184.25)"
       width="1052.3622"
       height="744.09448" />
    <use
       x="0"
       y="0"
       xlink:href="#use4211"
       id="use4251"
       transform="translate(0,184.25)"
       width="1052.3622"
       height="744.09448" />
    <use
       x="0"
       y="0"
       xlink:href="#use4213"
       id="use4253"
       transform="translate(0,184.25)"
       width="1052.3622"
       height="744.09448" />
    <use
       x="0"
       y="0"
       xlink:href="#use4215"
       id="use4255"
       transform="translate(0,184.25)"
       width="1052.3622"
       height="744.09448" />
    <use
       x="0"
       y="0"
       xlink:href="#use4217"
       id="use4257"
       transform="translate(0,184.25)"
       width="1052.3622"
       height="744.09448" />
    <use
       x="0"
       y="0"
       xlink:href="#use4219"
       id="use4259"
       transform="translate(0,184.25)"
       width="1052.3622"
       height="744.09448" />
    <use
       x="0"
       y="0"
       xlink:href="#use4221"
       id="use4261"
       transform="translate(0,184.25)"
       width="1052.3622"
       height="744.09448" />
    <use
       x="0"
       y="0"
       xlink:href="#use4223"
       id="use4263"
       transform="translate(0,184.25)"
       width="1052.3622"
       height="744.09448" />
    <use
       x="0"
       y="0"
       xlink:href="#use4225"
       id="use4265"
       transform="translate(0,184.25)"
       width="1052.3622"
       height="744.09448" />
    <use
       x="0"
       y="0"
       xlink:href="#use4227"
       id="use4267"
       transform="translate(0,184.25)"
       width="1052.3622"
       height="744.09448" />
    <use
       x="0"
       y="0"
       xlink:href="#use4229"
       id="use4269"
       transform="translate(0,184.25)"
       width="1052.3622"
       height="744.09448" />
    <use
       x="0"
       y="0"
       xlink:href="#use4231"
       id="use4271"
       transform="translate(0,184.25)"
       width="1052.3622"
       height="744.09448" />
    <use
       x="0"
       y="0"
       xlink:href="#use4233"
       id="use4273"
       transform="translate(0,184.25)"
       width="1052.3622"
       height="744.09448" />
    <use
       x="0"
       y="0"
       xlink:href="#use4235"
       id="use4275"
       transform="translate(0,184.25)"
       width="1052.3622"
       height="744.09448" />
    <use
       x="0"
       y="0"
       xlink:href="#use4237"
       id="use4277"
       transform="translate(0,184.25)"
       width="1052.3622"
       height="744.09448" />
    <use
       x="0"
       y="0"
       xlink:href="#use4239"
       id="use4279"
       transform="translate(0,184.25)"
       width="1052.3622"
       height="744.09448" />
    <use
       x="0"
       y="0"
       xlink:href="#use4241"
       id="use4281"
       transform="translate(0,184.25)"
       width="1052.3622"
       height="744.09448" />
    <use
       x="0"
       y="0"
       xlink:href="#use4243"
       id="use4283"
       transform="translate(0,184.25)"
       width="1052.3622"
       height="744.09448" />
    <use
       x="0"
       y="0"
       xlink:href="#use4245"
       id="use4285"
       transform="translate(0,184.25)"
       width="1052.3622"
       height="744.09448" />
    <use
       x="0"
       y="0"
       xlink:href="#use4247"
       id="use4287"
       transform="translate(0,184.25)"
       width="1052.3622"
       height="744.09448" />
    <use
       x="0"
       y="0"
       xlink:href="#use4249"
       id="use4289"
       transform="translate(0,184.25)"
       width="1052.3622"
       height="744.09448" />
    <use
       x="0"
       y="0"
       xlink:href="#use4251"
       id="use4291"
       transform="translate(0,184.25)"
       width="1052.3622"
       height="744.09448" />
    <use
       x="0"
       y="0"
       xlink:href="#use4253"
       id="use4293"
       transform="translate(0,184.25)"
       width="1052.3622"
       height="744.09448" />
    <use
       x="0"
       y="0"
       xlink:href="#use4255"
       id="use4295"
       transform="translate(0,184.25)"
       width="1052.3622"
       height="744.09448" />
    <use
       x="0"
       y="0"
       xlink:href="#use4257"
       id="use4297"
       transform="translate(0,184.25)"
       width="1052.3622"
       height="744.09448" />
    <use
       x="0"
       y="0"
       xlink:href="#use4259"
       id="use4299"
       transform="translate(0,184.25)"
       width="1052.3622"
       height="744.09448" />
    <use
       x="0"
       y="0"
       xlink:href="#use4261"
       id="use4301"
       transform="translate(0,184.25)"
       width="1052.3622"
       height="744.09448" />
    <use
       x="0"
       y="0"
       xlink:href="#use4263"
       id="use4303"
       transform="translate(0,184.25)"
       width="1052.3622"
       height="744.09448" />
    <use
       x="0"
       y="0"
       xlink:href="#use4265"
       id="use4305"
       transform="translate(0,184.25)"
       width="1052.3622"
       height="744.09448" />
    <use
       x="0"
       y="0"
       xlink:href="#use4267"
       id="use4307"
       transform="translate(0,184.25)"
       width="1052.3622"
       height="744.09448" />
    <use
       x="0"
       y="0"
       xlink:href="#use4269"
       id="use4309"
       transform="translate(0,184.25)"
       width="1052.3622"
       height="744.09448" />
    <use
       x="0"
       y="0"
       xlink:href="#use4271"
       id="use4311"
       transform="translate(0,184.25)"
       width="1052.3622"
       height="744.09448" />
    <use
       x="0"
       y="0"
       xlink:href="#use4273"
       id="use4313"
       transform="translate(0,184.25)"
       width="1052.3622"
       height="744.09448" />
    <use
       x="0"
       y="0"
       xlink:href="#use4275"
       id="use4315"
       transform="translate(0,184.25)"
       width="1052.3622"
       height="744.09448" />
    <use
       x="0"
       y="0"
       xlink:href="#use4277"
       id="use4317"
       transform="translate(0,184.25)"
       width="1052.3622"
       height="744.09448" />
    <use
       x="0"
       y="0"
       xlink:href="#use4279"
       id="use4319"
       transform="translate(0,184.25)"
       width="1052.3622"
       height="744.09448" />
    <use
       x="0"
       y="0"
       xlink:href="#use4281"
       id="use4321"
       transform="translate(0,184.25)"
       width="1052.3622"
       height="744.09448" />
    <use
       x="0"
       y="0"
       xlink:href="#use4283"
       id="use4323"
       transform="translate(0,184.25)"
       width="1052.3622"
       height="744.09448" />
    <use
       x="0"
       y="0"
       xlink:href="#use4285"
       id="use4325"
       transform="translate(0,184.25)"
       width="1052.3622"
       height="744.09448" />
    <use
       x="0"
       y="0"
       xlink:href="#use4287"
       id="use4327"
       transform="translate(0,184.25)"
       width="1052.3622"
       height="744.09448" />
    <use
       x="0"
       y="0"
       xlink:href="#use4289"
       id="use4329"
       transform="translate(0,184.25)"
       width="1052.3622"
       height="744.09448" />
    <use
       x="0"
       y="0"
       xlink:href="#use4291"
       id="use4331"
       transform="translate(0,184.25)"
       width="1052.3622"
       height="744.09448" />
    <use
       x="0"
       y="0"
       xlink:href="#use4293"
       id="use4333"
       transform="translate(0,184.25)"
       width="1052.3622"
       height="744.09448" />
    <use
       x="0"
       y="0"
       xlink:href="#use4295"
       id="use4335"
       transform="translate(0,184.25)"
       width="1052.3622"
       height="744.09448" />
    <use
       x="0"
       y="0"
       xlink:href="#use4297"
       id="use4337"
       transform="translate(0,184.25)"
       width="1052.3622"
       height="744.09448" />
    <use
       x="0"
       y="0"
       xlink:href="#use4299"
       id="use4339"
       transform="translate(0,184.25)"
       width="1052.3622"
       height="744.09448" />
    <use
       x="0"
       y="0"
       xlink:href="#use4301"
       id="use4341"
       transform="translate(0,184.25)"
       width="1052.3622"
       height="744.09448" />
    <use
       x="0"
       y="0"
       xlink:href="#use4303"
       id="use4343"
       transform="translate(0,184.25)"
       width="1052.3622"
       height="744.09448" />
    <use
       x="0"
       y="0"
       xlink:href="#use4305"
       id="use4345"
       transform="translate(0,184.25)"
       width="1052.3622"
       height="744.09448" />
    <use
       x="0"
       y="0"
       xlink:href="#use4307"
       id="use4347"
       transform="translate(0,184.25)"
       width="1052.3622"
       height="744.09448" />
    <use
       x="0"
       y="0"
       xlink:href="#use4309"
       id="use4349"
       transform="translate(0,184.25)"
       width="1052.3622"
       height="744.09448" />
    <use
       x="0"
       y="0"
       xlink:href="#use4311"
       id="use4351"
       transform="translate(0,184.25)"
       width="1052.3622"
       height="744.09448" />
    <use
       x="0"
       y="0"
       xlink:href="#use4313"
       id="use4353"
       transform="translate(0,184.25)"
       width="1052.3622"
       height="744.09448" />
  </g>
</svg>
